<svg xmlns="http://www.w3.org/2000/svg" width="50" height="50" viewBox="0 0 100 100"><circle cx="50" cy="50" r="50" fill="#ccc"/><path fill="#fff" fill-rule="evenodd" d="M38.53 41.23a12.8 12.8 0 0 1 2.4-4.5 10.8 10.8 0 0 1 4.02-3 13.6 13.6 0 0 1 5.58-1.08 13.9 13.9 0 0 1 4.57.75 11.9 11.9 0 0 1 3.83 2.15A10.3 10.3 0 0 1 61.55 39a10.6 10.6 0 0 1 .98 4.6 11 11 0 0 1-.85 4.55 12.2 12.2 0 0 1-2.25 3.38 19 19 0 0 1-3.18 2.67c-1.18.8-2.37 1.59-3.57 2.38s-2.37 1.62-3.5 2.52a16 16 0 0 0-3 3.15h16.55v6.1h-25.7a14.7 14.7 0 0 1 .87-5.3 14.2 14.2 0 0 1 2.38-4.02 20.5 20.5 0 0 1 3.52-3.28c1.35-1 2.78-2.01 4.28-3.05.77-.53 1.58-1.07 2.45-1.62a15.5 15.5 0 0 0 2.37-1.83A9.3 9.3 0 0 0 54.7 47a5.5 5.5 0 0 0 .73-2.85 5.006 5.006 0 0 0-5.25-5.4 4.57 4.57 0 0 0-2.63.73 5.35 5.35 0 0 0-1.72 1.9 9 9 0 0 0-.93 2.6 15 15 0 0 0-.27 2.82h-6.8a16.7 16.7 0 0 1 .7-5.57" data-name="2"/></svg>