<svg width="16" height="16" fill="currentColor" xmlns="http://www.w3.org/2000/svg"><path d="M2.4 3.308c0-.24.098-.472.273-.642a.947.947 0 01.66-.266c.248 0 .485.096.66.266.176.17.274.401.274.642v.782A5.681 5.681 0 017.59 2.718a5.72 5.72 0 013.494.887 5.472 5.472 0 012.211 2.777 5.307 5.307 0 01.01 3.513 5.47 5.47 0 01-2.196 2.788 5.72 5.72 0 01-3.49.904 5.683 5.683 0 01-3.331-1.354 5.415 5.415 0 01-1.79-3.051c-.109-.563.379-1.031.968-1.031.441 0 .791.352.885.772.17.759.584 1.445 1.184 1.958a3.819 3.819 0 004.42.366 3.66 3.66 0 001.508-1.734c.3-.72.354-1.515.155-2.267a3.624 3.624 0 00-1.26-1.913 3.797 3.797 0 00-2.182-.81 3.813 3.813 0 00-2.25.607h.518c.248 0 .485.096.66.266a.895.895 0 010 1.284.947.947 0 01-.66.266H3.333a.947.947 0 01-.66-.266.896.896 0 01-.273-.642v-2.73z"/></svg>