<svg xmlns="http://www.w3.org/2000/svg" width="16" height="16" fill="currentColor"><path d="M2.4 3.308c0-.24.098-.472.273-.642a.95.95 0 0 1 .66-.266c.248 0 .485.096.66.266s.274.401.274.642v.782A5.68 5.68 0 0 1 7.59 2.718a5.72 5.72 0 0 1 3.494.887 5.47 5.47 0 0 1 2.211 2.777 5.3 5.3 0 0 1 .01 3.513 5.47 5.47 0 0 1-2.196 2.788 5.72 5.72 0 0 1-3.49.904 5.7 5.7 0 0 1-3.331-1.354 5.4 5.4 0 0 1-1.79-3.051c-.109-.563.379-1.031.968-1.031.441 0 .791.352.885.772.17.759.584 1.445 1.184 1.958a3.82 3.82 0 0 0 4.42.366 3.66 3.66 0 0 0 1.508-1.734c.3-.72.354-1.515.155-2.267a3.62 3.62 0 0 0-1.26-1.913 3.8 3.8 0 0 0-2.182-.81 3.8 3.8 0 0 0-2.25.607h.518c.248 0 .485.096.66.266a.895.895 0 0 1 0 1.284.95.95 0 0 1-.66.266H3.333a.95.95 0 0 1-.66-.266.9.9 0 0 1-.273-.642z"/></svg>