<?xml version="1.0" encoding="utf-8"?>
<!-- Generator: Adobe Illustrator 21.0.0, SVG Export Plug-In . SVG Version: 6.00 Build 0)  -->
<svg version="1.1" id="Ebene_1" xmlns="http://www.w3.org/2000/svg" xmlns:xlink="http://www.w3.org/1999/xlink" x="0px" y="0px"
	 viewBox="0 0 512 512" style="enable-background:new 0 0 512 512;" xml:space="preserve">
<style type="text/css">
	.st0{display:none;}
	.st1{display:inline;fill:#C5DFA2;}
	.st2{display:none;opacity:0.4;fill:#33691E;enable-background:new    ;}
	.st3{fill:#C7E0EA;stroke:#EEFAFF;stroke-width:14;stroke-miterlimit:10;}
	.st4{fill:none;stroke:#EEFAFF;stroke-width:14;stroke-miterlimit:10;}
	.st5{fill:none;stroke:#EEFAFF;stroke-width:18;stroke-miterlimit:10;}
	.st6{opacity:0.3;fill:#99ACB6;enable-background:new    ;}
	.st7{opacity:0.25;fill:#329CCA;enable-background:new    ;}
	.st8{fill:none;stroke:#329CCA;stroke-width:14;stroke-miterlimit:10;}
	.st9{fill:#329CCA;}
</style>
<g id="Layer_1" class="st0">
</g>
<g id="Layer_2" class="st0">
</g>
<g id="Layer_3" class="st0">
	<rect class="st1" width="512" height="512"/>
</g>
<g id="Layer_4">
	<polygon class="st2" points="361.4,684.6 75.1,398.3 436,101.4 696.9,362.3 	"/>
	<path class="st3" d="M433,384.9c0,5.4-5.4,10.1-12,10.1H87c-6.6,0-12-4.7-12-10.1V111.8c0-5.4,5.4-9.8,12-9.8h334
		c6.6,0,12,4.4,12,9.8V384.9z"/>
	<line class="st4" x1="83" y1="107" x2="197" y2="220.3"/>
	<line class="st4" x1="428" y1="106" x2="357" y2="178"/>
	<line class="st5" x1="193" y1="250.4" x2="262.8" y2="319.8"/>
	<line class="st5" x1="378.2" y1="190.3" x2="252" y2="318"/>
	<polyline class="st6" points="82.3,117 191,239 191,225 	"/>
	<polygon class="st6" points="201,271 256.3,326.3 383.2,198.1 370.9,174.2 426,118.7 381.7,190.3 391.7,217.7 309.7,352.8 
		297.7,352 263.7,352 205,286.2 	"/>
	
		<ellipse transform="matrix(0.7071 -0.7071 0.7071 0.7071 -91.465 282.6187)" class="st7" cx="295.4" cy="251.7" rx="101" ry="101"/>
	
		<ellipse transform="matrix(0.7071 -0.7071 0.7071 0.7071 -91.465 282.6187)" class="st8" cx="295.4" cy="251.7" rx="101" ry="101"/>
	<path class="st9" d="M466.1,450.1c-3.9,3.9-9.6,4.6-12.7,1.5L362.7,361c-3.1-3.1-2.4-8.8,1.5-12.7l23.2-23.2
		c3.9-3.9,9.6-4.6,12.7-1.5l90.7,90.7c3.1,3.1,2.4,8.8-1.5,12.7L466.1,450.1z"/>
</g>
</svg>
