<?xml version="1.0" encoding="utf-8"?>
<!-- Generator: Adobe Illustrator 23.0.2, SVG Export Plug-In . SVG Version: 6.00 Build 0)  -->
<svg version="1.1" xmlns="http://www.w3.org/2000/svg" xmlns:xlink="http://www.w3.org/1999/xlink" x="0px" y="0px"
	 viewBox="0 0 120.8 120.8" style="enable-background:new 0 0 120.8 120.8;" xml:space="preserve">
<style type="text/css">
	.st0{fill:#FE5301;}
	.st1{fill:#FFFFFF;}
</style>
<g id="Layer_2">
	<rect class="st0" width="120.8" height="120.8"/>
</g>
<g id="Layer_1">
	<g>
		<path class="st1" d="M79.4,30.6L66.9,65c-0.5,1.4-1.2,2.3-2.2,2.9s-2.2,0.8-3.5,0.8c-1.9,0-3.3-0.4-4.3-1.1
			c-0.9-0.8-1.7-1.8-2.2-3.2L42.9,33.2V65c0,1.2-0.4,2.2-1.1,3.1c-0.8,0.9-2.2,1.3-4.2,1.3c-1.9,0-3.3-0.4-4.1-1.1s-1.1-1.9-1.1-3.5
			V19.3c0-1.9,0.7-3.3,2-4.2c1.3-0.8,3.1-1.3,5.4-1.3c2.3,0,4.1,0.4,5.3,1.3c1.2,0.9,2.1,2.1,2.6,3.7l13.5,38.6l12.9-38.3
			c0.6-1.9,1.6-3.2,3-4.1c1.4-0.8,3.3-1.2,5.7-1.2c2.2,0,3.9,0.4,5.2,1.2c1.3,0.8,1.9,2.1,1.9,3.7v46.1c0,1.2-0.4,2.2-1.1,3.1
			c-0.8,0.9-2.2,1.3-4.2,1.3c-1.9,0-3.2-0.4-4-1.2c-0.8-0.8-1.2-2-1.2-3.5C79.4,64.5,79.4,30.6,79.4,30.6z"/>
		<path class="st1" d="M103.2,80.3c-3.6-1.8-5.6-0.8-6.9,1.8c-1.6,3-4.6,4.9-8,4.9l0,0l0,0H75c-5.3,0-10.3,2.2-13.9,5.8
			c-3.6-3.6-8.6-5.8-13.9-5.8H34.1l0,0l0,0c-3.4,0-6.5-1.9-8-4.9c-1.3-2.6-3.3-3.6-6.9-1.8c-3.1,1.5-3.8,4.1-2.5,6.7
			c3.4,6.5,10,10.6,17.3,10.6l0,0c0,0,0,0,0.1,0c0,0,0,0,0.1,0h13l0,0h0.1c4.1,0,7.7,2.8,8.8,6.7c0,0.1,0.4,2.9,5.1,2.9l0,0l0,0
			c4.7,0,5.1-2.9,5.1-2.9c1.1-3.9,4.7-6.7,8.8-6.7h0.1l0,0h13c0,0,0,0,0.1,0c0,0,0,0,0.1,0l0,0c7.3-0.1,14-4.1,17.3-10.6
			C107,84.4,106.3,81.8,103.2,80.3"/>
	</g>
</g>
</svg>
